solid OpenSCAD_Model
  facet normal -0.995037 -2.10241e-15 -0.0995037
    outer loop
      vertex -4.94 10 5.4
      vertex -4.9 10 5
      vertex -5 9.82857 6
    endloop
  endfacet
  facet normal -0.995037 2.44763e-16 -0.0995037
    outer loop
      vertex -5 9.82857 6
      vertex -4.9 10 5
      vertex -4.9 -9.9 5
    endloop
  endfacet
  facet normal -0.995037 2.18157e-16 -0.0995037
    outer loop
      vertex -5 9.82857 6
      vertex -4.9 -9.9 5
      vertex -4.94 -9.9 5.4
    endloop
  endfacet
  facet normal -0.995037 2.4854e-16 -0.0995037
    outer loop
      vertex -5 9.82857 6
      vertex -4.94 -9.9 5.4
      vertex -5 -9.72857 6
    endloop
  endfacet
  facet normal -1 2.45741e-16 -1.05318e-16
    outer loop
      vertex -5 -8.98571 8
      vertex -5 9.08571 8
      vertex -5 -9.5 6.8
    endloop
  endfacet
  facet normal -1 2.32507e-16 9.9646e-17
    outer loop
      vertex -5 -9.5 6.8
      vertex -5 9.08571 8
      vertex -5 9.6 6.8
    endloop
  endfacet
  facet normal -1 2.32507e-16 6.64307e-17
    outer loop
      vertex -5 -9.5 6.8
      vertex -5 9.6 6.8
      vertex -5 9.82857 6
    endloop
  endfacet
  facet normal -1 2.27073e-16 -6.48779e-17
    outer loop
      vertex -5 -9.5 6.8
      vertex -5 9.82857 6
      vertex -5 -9.72857 6
    endloop
  endfacet
  facet normal 1.63462e-14 -0.961524 0.274721
    outer loop
      vertex -5 -9.5 6.8
      vertex -5 -9.72857 6
      vertex -4.94 -9.9 5.4
    endloop
  endfacet
  facet normal -9.30791e-17 -0.961524 0.274721
    outer loop
      vertex 5 -9.72857 6
      vertex -5 -9.5 6.8
      vertex 4.94 -9.9 5.4
    endloop
  endfacet
  facet normal -2.46965e-16 -0.961524 0.274721
    outer loop
      vertex 4.94 -9.9 5.4
      vertex -5 -9.5 6.8
      vertex -4.94 -9.9 5.4
    endloop
  endfacet
  facet normal -2.44001e-16 -0.961524 0.274721
    outer loop
      vertex 5 -9.5 6.8
      vertex -5 -9.5 6.8
      vertex 5 -9.72857 6
    endloop
  endfacet
  facet normal -7.32004e-17 0.961524 0.274721
    outer loop
      vertex 5 9.6 6.8
      vertex -4.94 10 5.4
      vertex -5 9.6 6.8
    endloop
  endfacet
  facet normal -2.23398e-14 0.961524 0.274721
    outer loop
      vertex -4.94 10 5.4
      vertex -5 9.82857 6
      vertex -5 9.6 6.8
    endloop
  endfacet
  facet normal 6.21739e-17 0.961524 0.274721
    outer loop
      vertex 5 9.82857 6
      vertex -4.94 10 5.4
      vertex 5 9.6 6.8
    endloop
  endfacet
  facet normal -1.72875e-16 0.961524 0.274721
    outer loop
      vertex 4.94 10 5.4
      vertex -4.94 10 5.4
      vertex 5 9.82857 6
    endloop
  endfacet
  facet normal -2.07587e-31 8.12636e-17 1.7655e-16
    outer loop
      vertex -5 10 5.4
      vertex -4.94 10 5.4
      vertex 4.94 10 5.4
    endloop
  endfacet
  facet normal 0 7.99361e-18 2.13163e-18
    outer loop
      vertex -5 10 5.4
      vertex 4.94 10 5.4
      vertex 5 10 5.4
    endloop
  endfacet
  facet normal -1.79793e-16 -1 -1.79793e-17
    outer loop
      vertex 4.94 -9.9 5.4
      vertex -4.94 -9.9 5.4
      vertex -4.9 -9.9 5
    endloop
  endfacet
  facet normal -1.88974e-16 -1 3.23956e-17
    outer loop
      vertex 4.7 -9.9 4
      vertex 4.94 -9.9 5.4
      vertex -4.7 -9.9 4
    endloop
  endfacet
  facet normal -1.79068e-16 -1 -3.58136e-17
    outer loop
      vertex -4.7 -9.9 4
      vertex 4.94 -9.9 5.4
      vertex -4.9 -9.9 5
    endloop
  endfacet
  facet normal 0 -1 -0
    outer loop
      vertex 4.9 -9.9 5
      vertex 4.94 -9.9 5.4
      vertex 4.7 -9.9 4
    endloop
  endfacet
  facet normal -2.03012e-15 3.50414e-16 -4.06024e-16
    outer loop
      vertex -4.875 10 4.875
      vertex -4.7 10 4
      vertex -4.9 10 5
    endloop
  endfacet
  facet normal -0.980581 2.58111e-16 -0.196116
    outer loop
      vertex -4.9 10 5
      vertex -4.7 10 4
      vertex -4.7 -9.9 4
    endloop
  endfacet
  facet normal -0.980581 2.62592e-16 -0.196116
    outer loop
      vertex -4.9 10 5
      vertex -4.7 -9.9 4
      vertex -4.9 -9.9 5
    endloop
  endfacet
  facet normal -1.77636e-14 -1 -1.77636e-14
    outer loop
      vertex -5 10 5
      vertex -4.875 10 4.875
      vertex -4.9 10 5
    endloop
  endfacet
  facet normal -1.77636e-14 -1 -1.77636e-15
    outer loop
      vertex -4.94 10 5.4
      vertex -5 10 5
      vertex -4.9 10 5
    endloop
  endfacet
  facet normal 0 -1 -4.44089e-15
    outer loop
      vertex -4.94 10 5.4
      vertex -5 10 5.4
      vertex -5 10 5
    endloop
  endfacet
  facet normal -2.65744e-16 -0.919145 0.393919
    outer loop
      vertex -5 -8.98571 8
      vertex -5 -9.5 6.8
      vertex 5 -9.5 6.8
    endloop
  endfacet
  facet normal -2.56096e-16 -0.919145 0.393919
    outer loop
      vertex 4.99 -8.9 8.2
      vertex -5 -8.98571 8
      vertex 5 -8.98571 8
    endloop
  endfacet
  facet normal -2.56572e-16 -0.919145 0.393919
    outer loop
      vertex 5 -8.98571 8
      vertex -5 -8.98571 8
      vertex 5 -9.5 6.8
    endloop
  endfacet
  facet normal -2.33715e-16 -0.919145 0.393919
    outer loop
      vertex -4.99 -8.9 8.2
      vertex -5 -8.98571 8
      vertex 4.99 -8.9 8.2
    endloop
  endfacet
  facet normal -2.60216e-14 0.919145 0.393919
    outer loop
      vertex -5 9.08571 8
      vertex -4.99 9 8.2
      vertex -5 9.6 6.8
    endloop
  endfacet
  facet normal -5.69451e-17 0.919145 0.393919
    outer loop
      vertex -5 9.6 6.8
      vertex -4.99 9 8.2
      vertex 4.99 9 8.2
    endloop
  endfacet
  facet normal 7.13229e-16 0.919145 0.393919
    outer loop
      vertex -5 9.6 6.8
      vertex 4.99 9 8.2
      vertex 5 9.08571 8
    endloop
  endfacet
  facet normal -1.04961e-16 0.919145 0.393919
    outer loop
      vertex -5 9.6 6.8
      vertex 5 9.08571 8
      vertex 5 9.6 6.8
    endloop
  endfacet
  facet normal -0.998752 1.61793e-16 0.0499376
    outer loop
      vertex -4.9 -7.9 10
      vertex -4.9 8 10
      vertex -4.99 -8.9 8.2
    endloop
  endfacet
  facet normal -0.998752 1.98228e-16 0.0499376
    outer loop
      vertex -4.99 -8.9 8.2
      vertex -4.9 8 10
      vertex -4.99 9 8.2
    endloop
  endfacet
  facet normal -0.998752 1.98228e-16 0.0499376
    outer loop
      vertex -4.99 -8.9 8.2
      vertex -4.99 9 8.2
      vertex -5 9.08571 8
    endloop
  endfacet
  facet normal -0.998752 2.33207e-16 0.0499376
    outer loop
      vertex -4.99 -8.9 8.2
      vertex -5 9.08571 8
      vertex -5 -8.98571 8
    endloop
  endfacet
  facet normal 1 -2.61848e-31 4.44089e-16
    outer loop
      vertex 5 -4.21725 6
      vertex 5 -7.38018 8
      vertex 5 -8.98571 8
    endloop
  endfacet
  facet normal 1 -3.2231e-16 -1.01813e-15
    outer loop
      vertex 5 -9.72857 6
      vertex 5 -4.21725 6
      vertex 5 -9.5 6.8
    endloop
  endfacet
  facet normal 1 -1.57881e-16 6.76634e-17
    outer loop
      vertex 5 -9.5 6.8
      vertex 5 -4.21725 6
      vertex 5 -8.98571 8
    endloop
  endfacet
  facet normal 0.995037 3.0207e-16 -0.0995037
    outer loop
      vertex 4.9 10 5
      vertex 4.94 10 5.4
      vertex 5 9.82857 6
    endloop
  endfacet
  facet normal 0.995037 -3.88943e-16 -0.0995037
    outer loop
      vertex 5 -4.21725 6
      vertex 4.9 10 5
      vertex 5 0.1 6
    endloop
  endfacet
  facet normal 0.995037 -2.90697e-16 -0.0995037
    outer loop
      vertex 5 0.1 6
      vertex 4.9 10 5
      vertex 5 9.82857 6
    endloop
  endfacet
  facet normal 0.995037 -2.8864e-16 -0.0995037
    outer loop
      vertex 5 -9.72857 6
      vertex 4.9 10 5
      vertex 5 -4.21725 6
    endloop
  endfacet
  facet normal 0.995037 -2.98621e-16 -0.0995037
    outer loop
      vertex 4.94 -9.9 5.4
      vertex 4.9 10 5
      vertex 5 -9.72857 6
    endloop
  endfacet
  facet normal 0.995037 -3.19756e-16 -0.0995037
    outer loop
      vertex 4.9 -9.9 5
      vertex 4.9 10 5
      vertex 4.94 -9.9 5.4
    endloop
  endfacet
  facet normal 0 1 -0
    outer loop
      vertex -5 10 5.4
      vertex 5 10 5.4
      vertex -5 10 5
    endloop
  endfacet
  facet normal 0 1 0
    outer loop
      vertex -5 10 5
      vertex 5 10 5.4
      vertex 5 10 4
    endloop
  endfacet
  facet normal 0 1 0
    outer loop
      vertex -4.875 10 4.875
      vertex 5 10 4
      vertex -4.7 10 4
    endloop
  endfacet
  facet normal 0 1 0
    outer loop
      vertex -5 10 5
      vertex 5 10 4
      vertex -4.875 10 4.875
    endloop
  endfacet
  facet normal 0 -1 0
    outer loop
      vertex 5 10 4
      vertex 5 10 5.4
      vertex 4.94 10 5.4
    endloop
  endfacet
  facet normal -0 -1 0
    outer loop
      vertex 4.7 10 4
      vertex 5 10 4
      vertex 4.9 10 5
    endloop
  endfacet
  facet normal -0 -1 0
    outer loop
      vertex 4.9 10 5
      vertex 5 10 4
      vertex 4.94 10 5.4
    endloop
  endfacet
  facet normal 1 -5.10668e-30 7.40149e-16
    outer loop
      vertex 5 9.6 6.8
      vertex 5 9.08571 8
      vertex 5 0.1 8
    endloop
  endfacet
  facet normal 1 0 0
    outer loop
      vertex 5 9.82857 6
      vertex 5 9.6 6.8
      vertex 5 0.1 6
    endloop
  endfacet
  facet normal 1 -3.7397e-17 4.44089e-16
    outer loop
      vertex 5 0.1 6
      vertex 5 9.6 6.8
      vertex 5 0.1 8
    endloop
  endfacet
  facet normal 0.980581 -2.81383e-16 -0.196116
    outer loop
      vertex 4.7 10 4
      vertex 4.9 10 5
      vertex 4.9 -9.9 5
    endloop
  endfacet
  facet normal 0.980581 -2.88851e-16 -0.196116
    outer loop
      vertex 4.7 -9.9 4
      vertex 4.7 10 4
      vertex 4.9 -9.9 5
    endloop
  endfacet
  facet normal -9.37106e-17 -0.928477 -0.371391
    outer loop
      vertex 4.4 -9.5 3
      vertex 4.7 -9.9 4
      vertex -4.4 -9.5 3
    endloop
  endfacet
  facet normal -5.67566e-17 -0.928477 -0.371391
    outer loop
      vertex -4.4 -9.5 3
      vertex 4.7 -9.9 4
      vertex -4.7 -9.9 4
    endloop
  endfacet
  facet normal -0.957826 2.36119e-16 -0.287348
    outer loop
      vertex -4.7 10 4
      vertex -4.4 9.6 3
      vertex -4.4 0.266667 3
    endloop
  endfacet
  facet normal -0.957826 3.28511e-16 -0.287348
    outer loop
      vertex -4.7 10 4
      vertex -4.4 0.266667 3
      vertex -4.4975 0.05 3.325
    endloop
  endfacet
  facet normal -0.957826 2.38861e-16 -0.287348
    outer loop
      vertex -4.4975 0.05 3.325
      vertex -4.4 -0.166667 3
      vertex -4.4 -9.5 3
    endloop
  endfacet
  facet normal -0.957826 3.26438e-16 -0.287348
    outer loop
      vertex -4.4975 0.05 3.325
      vertex -4.4 -9.5 3
      vertex -4.7 10 4
    endloop
  endfacet
  facet normal -0.957826 2.71461e-16 -0.287348
    outer loop
      vertex -4.7 10 4
      vertex -4.4 -9.5 3
      vertex -4.7 -9.9 4
    endloop
  endfacet
  facet normal -2.31189e-16 -0.874157 0.485643
    outer loop
      vertex -4.9 -7.9 10
      vertex -4.99 -8.9 8.2
      vertex 4.99 -8.9 8.2
    endloop
  endfacet
  facet normal -1.40845e-16 -0.874157 0.485643
    outer loop
      vertex 4.9 -7.9 10
      vertex -4.9 -7.9 10
      vertex 4.99 -8.9 8.2
    endloop
  endfacet
  facet normal 0.998752 -2.72628e-17 0.0499376
    outer loop
      vertex 4.99 -8.9 8.2
      vertex 5 -8.98571 8
      vertex 5 -7.38018 8
    endloop
  endfacet
  facet normal 0.998752 -4.62499e-16 0.0499376
    outer loop
      vertex 5 0.1 8
      vertex 4.99 -8.9 8.2
      vertex 5 -7.38018 8
    endloop
  endfacet
  facet normal 0.998752 -3.4552e-16 0.0499376
    outer loop
      vertex 5 9.08571 8
      vertex 4.99 -8.9 8.2
      vertex 5 0.1 8
    endloop
  endfacet
  facet normal 0.998752 -3.46899e-16 0.0499376
    outer loop
      vertex 4.99 9 8.2
      vertex 4.99 -8.9 8.2
      vertex 5 9.08571 8
    endloop
  endfacet
  facet normal 0.998752 -3.46516e-16 0.0499376
    outer loop
      vertex 4.9 8 10
      vertex 4.99 -8.9 8.2
      vertex 4.99 9 8.2
    endloop
  endfacet
  facet normal 0.998752 -3.51481e-16 0.0499376
    outer loop
      vertex 4.9 -7.9 10
      vertex 4.99 -8.9 8.2
      vertex 4.9 8 10
    endloop
  endfacet
  facet normal -8.64404e-17 0.874157 0.485643
    outer loop
      vertex -4.99 9 8.2
      vertex -4.9 8 10
      vertex 4.99 9 8.2
    endloop
  endfacet
  facet normal -8.40841e-17 0.874157 0.485643
    outer loop
      vertex 4.99 9 8.2
      vertex -4.9 8 10
      vertex 4.9 8 10
    endloop
  endfacet
  facet normal -1.57379e-16 0.868243 0.496139
    outer loop
      vertex 4.9 8 10
      vertex -4.9 8 10
      vertex -4.55 7.2 11.4
    endloop
  endfacet
  facet normal -1.05576e-16 0.868243 0.496139
    outer loop
      vertex 4.9 8 10
      vertex -4.55 7.2 11.4
      vertex 4.55 7.2 11.4
    endloop
  endfacet
  facet normal -0.970143 1.05553e-14 0.242536
    outer loop
      vertex -4.55 -7.1 11.4
      vertex -4.4 -6.7 12
      vertex -4.9 -7.9 10
    endloop
  endfacet
  facet normal -0.970143 1.61628e-16 0.242536
    outer loop
      vertex -4.9 -7.9 10
      vertex -4.4 -6.7 12
      vertex -4.4 6.8 12
    endloop
  endfacet
  facet normal -0.970143 1.39609e-16 0.242536
    outer loop
      vertex -4.9 -7.9 10
      vertex -4.4 6.8 12
      vertex -4.55 7.2 11.4
    endloop
  endfacet
  facet normal -0.970143 1.35481e-16 0.242536
    outer loop
      vertex -4.9 -7.9 10
      vertex -4.55 7.2 11.4
      vertex -4.9 8 10
    endloop
  endfacet
  facet normal 1 -2.37475e-16 6.85301e-17
    outer loop
      vertex 5 0.1 8
      vertex 5 -7.38018 8
      vertex 5 -4.21725 6
    endloop
  endfacet
  facet normal 1 -2.05728e-16 0
    outer loop
      vertex 5 0.1 6
      vertex 5 0.1 8
      vertex 5 -4.21725 6
    endloop
  endfacet
  facet normal 3.74842e-17 0.928477 -0.371391
    outer loop
      vertex 4.4 9.6 3
      vertex -4.4 9.6 3
      vertex 4.7 10 4
    endloop
  endfacet
  facet normal 8.38411e-32 7.25439e-16 -3.66259e-16
    outer loop
      vertex -4.7 10 4
      vertex 5 10 4
      vertex 4.7 10 4
    endloop
  endfacet
  facet normal 1.57912e-16 0.928477 -0.371391
    outer loop
      vertex -4.7 10 4
      vertex 4.7 10 4
      vertex -4.4 9.6 3
    endloop
  endfacet
  facet normal 0.957826 -1.7774e-16 -0.287348
    outer loop
      vertex 4.4 9.6 3
      vertex 4.4975 0.05 3.325
      vertex 4.4 0.266667 3
    endloop
  endfacet
  facet normal 0.957826 -2.54905e-16 -0.287348
    outer loop
      vertex 4.7 10 4
      vertex 4.4975 0.05 3.325
      vertex 4.4 9.6 3
    endloop
  endfacet
  facet normal 0.957826 -8.15007e-17 -0.287348
    outer loop
      vertex 4.4 -0.166667 3
      vertex 4.4975 0.05 3.325
      vertex 4.7 -9.9 4
    endloop
  endfacet
  facet normal 0.957826 -2.45811e-16 -0.287348
    outer loop
      vertex 4.7 -9.9 4
      vertex 4.4975 0.05 3.325
      vertex 4.7 10 4
    endloop
  endfacet
  facet normal 0.957826 -2.23314e-16 -0.287348
    outer loop
      vertex 4.4 -9.5 3
      vertex 4.4 -0.166667 3
      vertex 4.7 -9.9 4
    endloop
  endfacet
  facet normal -9.04408e-17 -0.857493 -0.514496
    outer loop
      vertex 4 -8.9 2
      vertex 4.4 -9.5 3
      vertex -4 -8.9 2
    endloop
  endfacet
  facet normal 1.19272e-17 -0.857493 -0.514496
    outer loop
      vertex -4 -8.9 2
      vertex 4.4 -9.5 3
      vertex -4.4 -9.5 3
    endloop
  endfacet
  facet normal -0.928477 3.09245e-15 -0.371391
    outer loop
      vertex -4.08 -0.7 2.2
      vertex -4 -0.9 2
      vertex -4.4 -0.166667 3
    endloop
  endfacet
  facet normal -0.928477 2.84082e-16 -0.371391
    outer loop
      vertex -4.4 -0.166667 3
      vertex -4 -0.9 2
      vertex -4 -8.9 2
    endloop
  endfacet
  facet normal -0.928477 2.47396e-16 -0.371391
    outer loop
      vertex -4.4 -0.166667 3
      vertex -4 -8.9 2
      vertex -4.4 -9.5 3
    endloop
  endfacet
  facet normal 1.492e-16 0.83205 -0.5547
    outer loop
      vertex -4.4975 0.05 3.325
      vertex -1.99513 0.05 3.325
      vertex -4.4 -0.166667 3
    endloop
  endfacet
  facet normal 2.51846e-16 0.83205 -0.5547
    outer loop
      vertex -4.4 -0.166667 3
      vertex -1.99513 0.05 3.325
      vertex -1.99513 -0.139513 3.04073
    endloop
  endfacet
  facet normal 2.52543e-16 0.83205 -0.5547
    outer loop
      vertex -4.4 -0.166667 3
      vertex -1.99513 -0.139513 3.04073
      vertex -1.95629 -0.415823 2.62627
    endloop
  endfacet
  facet normal 3.61241e-16 0.83205 -0.5547
    outer loop
      vertex -1.95629 -0.415823 2.62627
      vertex -1.87938 -0.68404 2.22394
      vertex -4.4 -0.166667 3
    endloop
  endfacet
  facet normal -1.98617e-15 0.83205 -0.5547
    outer loop
      vertex -1.87938 -0.68404 2.22394
      vertex -1.87228 -0.7 2.2
      vertex -4.4 -0.166667 3
    endloop
  endfacet
  facet normal 2.9241e-16 0.83205 -0.5547
    outer loop
      vertex -4.4 -0.166667 3
      vertex -1.87228 -0.7 2.2
      vertex -4.08 -0.7 2.2
    endloop
  endfacet
  facet normal 4.76824e-17 -0.83205 -0.5547
    outer loop
      vertex -1.99513 0.05 3.325
      vertex -4.4975 0.05 3.325
      vertex -4.4 0.266667 3
    endloop
  endfacet
  facet normal 2.24121e-16 -0.83205 -0.5547
    outer loop
      vertex -1.99513 0.139513 3.19073
      vertex -1.99513 0.05 3.325
      vertex -4.08 0.8 2.2
    endloop
  endfacet
  facet normal 0 -0.83205 -0.5547
    outer loop
      vertex -4.08 0.8 2.2
      vertex -1.99513 0.05 3.325
      vertex -4.4 0.266667 3
    endloop
  endfacet
  facet normal 2.18748e-16 -0.83205 -0.5547
    outer loop
      vertex -1.82776 0.8 2.2
      vertex -1.87938 0.68404 2.37394
      vertex -4.08 0.8 2.2
    endloop
  endfacet
  facet normal 2.48876e-16 -0.83205 -0.5547
    outer loop
      vertex -1.87938 0.68404 2.37394
      vertex -1.95629 0.415823 2.77627
      vertex -4.08 0.8 2.2
    endloop
  endfacet
  facet normal 2.59648e-16 -0.83205 -0.5547
    outer loop
      vertex -1.95629 0.415823 2.77627
      vertex -1.99513 0.139513 3.19073
      vertex -4.08 0.8 2.2
    endloop
  endfacet
  facet normal -0.928477 2.90364e-16 -0.371391
    outer loop
      vertex -4.4 9.6 3
      vertex -4 9 2
      vertex -4 1 2
    endloop
  endfacet
  facet normal -0.928477 3.24814e-17 -0.371391
    outer loop
      vertex -4.4 9.6 3
      vertex -4 1 2
      vertex -4.08 0.8 2.2
    endloop
  endfacet
  facet normal -0.928477 2.47396e-16 -0.371391
    outer loop
      vertex -4.4 9.6 3
      vertex -4.08 0.8 2.2
      vertex -4.4 0.266667 3
    endloop
  endfacet
  facet normal -2.45087e-16 -0.868243 0.496139
    outer loop
      vertex -4.55 -7.1 11.4
      vertex -4.9 -7.9 10
      vertex 4.9 -7.9 10
    endloop
  endfacet
  facet normal -2.66333e-16 -0.868243 0.496139
    outer loop
      vertex 4.55 -7.1 11.4
      vertex -4.55 -7.1 11.4
      vertex 4.9 -7.9 10
    endloop
  endfacet
  facet normal 0.970143 -4.21791e-16 0.242536
    outer loop
      vertex 4.55 7.2 11.4
      vertex 4.55 -7.1 11.4
      vertex 4.9 8 10
    endloop
  endfacet
  facet normal 0.970143 -4.06443e-16 0.242536
    outer loop
      vertex 4.9 8 10
      vertex 4.55 -7.1 11.4
      vertex 4.9 -7.9 10
    endloop
  endfacet
  facet normal 0.970143 -4.22792e-16 0.242536
    outer loop
      vertex 4.4 6.8 12
      vertex 4.55 -7.1 11.4
      vertex 4.55 7.2 11.4
    endloop
  endfacet
  facet normal 0.970143 -4.14873e-16 0.242536
    outer loop
      vertex 4.4 -6.7 12
      vertex 4.55 -7.1 11.4
      vertex 4.4 6.8 12
    endloop
  endfacet
  facet normal -1.0828e-16 0.83205 0.5547
    outer loop
      vertex -4.55 7.2 11.4
      vertex -4.4 6.8 12
      vertex 4.55 7.2 11.4
    endloop
  endfacet
  facet normal -2.62101e-16 0.83205 0.5547
    outer loop
      vertex 4.55 7.2 11.4
      vertex -4.4 6.8 12
      vertex -3.92 6 13.2
    endloop
  endfacet
  facet normal -1.17403e-16 0.83205 0.5547
    outer loop
      vertex 4.55 7.2 11.4
      vertex -3.92 6 13.2
      vertex 3.92 6 13.2
    endloop
  endfacet
  facet normal 8.31385e-15 0.83205 0.5547
    outer loop
      vertex 4.55 7.2 11.4
      vertex 3.92 6 13.2
      vertex 4.4 6.8 12
    endloop
  endfacet
  facet normal -0.928477 1.3102e-16 0.371391
    outer loop
      vertex -3.6 -5.3 14
      vertex -3.6 5.4 14
      vertex -3.92 -5.9 13.2
    endloop
  endfacet
  facet normal -0.928477 1.38597e-16 0.371391
    outer loop
      vertex -3.92 -5.9 13.2
      vertex -3.6 5.4 14
      vertex -3.92 6 13.2
    endloop
  endfacet
  facet normal -0.928477 1.38597e-16 0.371391
    outer loop
      vertex -3.92 -5.9 13.2
      vertex -3.92 6 13.2
      vertex -4.4 6.8 12
    endloop
  endfacet
  facet normal -0.928477 1.40314e-16 0.371391
    outer loop
      vertex -3.92 -5.9 13.2
      vertex -4.4 6.8 12
      vertex -4.4 -6.7 12
    endloop
  endfacet
  facet normal -2.75281e-16 -0.83205 0.5547
    outer loop
      vertex -4.4 -6.7 12
      vertex -4.55 -7.1 11.4
      vertex 4.55 -7.1 11.4
    endloop
  endfacet
  facet normal -1.04077e-16 -0.83205 0.5547
    outer loop
      vertex 3.92 -5.9 13.2
      vertex -4.4 -6.7 12
      vertex 4.4 -6.7 12
    endloop
  endfacet
  facet normal -1.11971e-16 -0.83205 0.5547
    outer loop
      vertex 4.4 -6.7 12
      vertex -4.4 -6.7 12
      vertex 4.55 -7.1 11.4
    endloop
  endfacet
  facet normal -2.19943e-16 -0.83205 0.5547
    outer loop
      vertex -3.92 -5.9 13.2
      vertex -4.4 -6.7 12
      vertex 3.92 -5.9 13.2
    endloop
  endfacet
  facet normal 1.29819e-16 0.857493 -0.514496
    outer loop
      vertex -4.4 9.6 3
      vertex 4.4 9.6 3
      vertex -4 9 2
    endloop
  endfacet
  facet normal 5.71205e-17 0.857493 -0.514496
    outer loop
      vertex -4 9 2
      vertex 4.4 9.6 3
      vertex 4 9 2
    endloop
  endfacet
  facet normal 0.928477 -2.00336e-16 -0.371391
    outer loop
      vertex 4.08 0.8 2.2
      vertex 4 9 2
      vertex 4.4 0.266667 3
    endloop
  endfacet
  facet normal 0.928477 -1.41369e-16 -0.371391
    outer loop
      vertex 4.4 0.266667 3
      vertex 4 9 2
      vertex 4.4 9.6 3
    endloop
  endfacet
  facet normal 0.928477 -1.34006e-16 -0.371391
    outer loop
      vertex 4 1 2
      vertex 4 9 2
      vertex 4.08 0.8 2.2
    endloop
  endfacet
  facet normal 0.928477 -7.24793e-16 -0.371391
    outer loop
      vertex 4 -0.9 2
      vertex 4.08 -0.7 2.2
      vertex 4.4 -0.166667 3
    endloop
  endfacet
  facet normal 0.928477 -1.54622e-16 -0.371391
    outer loop
      vertex 4 -8.9 2
      vertex 4 -0.9 2
      vertex 4.4 -9.5 3
    endloop
  endfacet
  facet normal 0.928477 -2.29725e-16 -0.371391
    outer loop
      vertex 4.4 -9.5 3
      vertex 4 -0.9 2
      vertex 4.4 -0.166667 3
    endloop
  endfacet
  facet normal 3.48073e-16 0.83205 -0.5547
    outer loop
      vertex 1.86839 -0.7 2.2
      vertex 1.92252 -0.551275 2.42309
      vertex 4.08 -0.7 2.2
    endloop
  endfacet
  facet normal 2.6988e-16 0.83205 -0.5547
    outer loop
      vertex 4.08 -0.7 2.2
      vertex 1.92252 -0.551275 2.42309
      vertex 1.98054 -0.278346 2.83248
    endloop
  endfacet
  facet normal 2.29037e-16 0.83205 -0.5547
    outer loop
      vertex 1.98054 -0.278346 2.83248
      vertex 2 0 3.25
      vertex 4.08 -0.7 2.2
    endloop
  endfacet
  facet normal -8.19888e-17 0.83205 -0.5547
    outer loop
      vertex 2 0 3.25
      vertex 1.9965 0.05 3.325
      vertex 4.08 -0.7 2.2
    endloop
  endfacet
  facet normal 2.49412e-16 0.83205 -0.5547
    outer loop
      vertex 4.08 -0.7 2.2
      vertex 1.9965 0.05 3.325
      vertex 4.4975 0.05 3.325
    endloop
  endfacet
  facet normal 2.24834e-15 0.83205 -0.5547
    outer loop
      vertex 4.08 -0.7 2.2
      vertex 4.4975 0.05 3.325
      vertex 4.4 -0.166667 3
    endloop
  endfacet
  facet normal 2.24296e-16 -0.83205 -0.5547
    outer loop
      vertex 1.92252 0.551275 2.57309
      vertex 1.83199 0.8 2.2
      vertex 4.08 0.8 2.2
    endloop
  endfacet
  facet normal 5.01355e-17 -0.83205 -0.5547
    outer loop
      vertex 4.4975 0.05 3.325
      vertex 1.92252 0.551275 2.57309
      vertex 4.4 0.266667 3
    endloop
  endfacet
  facet normal 7.68132e-17 -0.83205 -0.5547
    outer loop
      vertex 4.4 0.266667 3
      vertex 1.92252 0.551275 2.57309
      vertex 4.08 0.8 2.2
    endloop
  endfacet
  facet normal 1.99065e-16 -0.83205 -0.5547
    outer loop
      vertex 1.98054 0.278346 2.98248
      vertex 1.92252 0.551275 2.57309
      vertex 4.4975 0.05 3.325
    endloop
  endfacet
  facet normal 1.46204e-16 -0.83205 -0.5547
    outer loop
      vertex 1.9965 0.05 3.325
      vertex 1.98054 0.278346 2.98248
      vertex 4.4975 0.05 3.325
    endloop
  endfacet
  facet normal 6.72897e-17 -0.707107 -0.707107
    outer loop
      vertex 3.5 -7.9 1
      vertex 4 -8.9 2
      vertex -3.5 -7.9 1
    endloop
  endfacet
  facet normal -1.20747e-16 -0.707107 -0.707107
    outer loop
      vertex -3.5 -7.9 1
      vertex 4 -8.9 2
      vertex -4 -8.9 2
    endloop
  endfacet
  facet normal -0.894427 2.97904e-16 -0.447214
    outer loop
      vertex -3.5 -1.9 1
      vertex -3.5 -7.9 1
      vertex -4 -0.9 2
    endloop
  endfacet
  facet normal -0.894427 2.97904e-16 -0.447214
    outer loop
      vertex -4 -0.9 2
      vertex -3.5 -7.9 1
      vertex -4 -8.9 2
    endloop
  endfacet
  facet normal 3.55591e-16 0.707107 -0.707107
    outer loop
      vertex -4.08 -0.7 2.2
      vertex -1.87228 -0.7 2.2
      vertex -4 -0.9 2
    endloop
  endfacet
  facet normal 2.10946e-16 0.707107 -0.707107
    outer loop
      vertex -4 -0.9 2
      vertex -1.87228 -0.7 2.2
      vertex -1.76589 -0.938943 1.96106
    endloop
  endfacet
  facet normal 2.06303e-16 0.707107 -0.707107
    outer loop
      vertex -4 -0.9 2
      vertex -1.76589 -0.938943 1.96106
      vertex -1.61803 -1.17557 1.72443
    endloop
  endfacet
  facet normal 2.57366e-16 0.707107 -0.707107
    outer loop
      vertex -1.61803 -1.17557 1.72443
      vertex -1.43868 -1.38932 1.51068
      vertex -4 -0.9 2
    endloop
  endfacet
  facet normal 2.77674e-16 0.707107 -0.707107
    outer loop
      vertex -1.43868 -1.38932 1.51068
      vertex -1.23132 -1.57602 1.32398
      vertex -4 -0.9 2
    endloop
  endfacet
  facet normal -1.02348e-16 0.707107 -0.707107
    outer loop
      vertex -1.23132 -1.57602 1.32398
      vertex -1 -1.73205 1.16795
      vertex -4 -0.9 2
    endloop
  endfacet
  facet normal 5.57972e-16 0.707107 -0.707107
    outer loop
      vertex -1 -1.73205 1.16795
      vertex -0.749213 -1.85437 1.04563
      vertex -4 -0.9 2
    endloop
  endfacet
  facet normal -3.59634e-15 0.707107 -0.707107
    outer loop
      vertex -0.749213 -1.85437 1.04563
      vertex -0.483844 -1.94059 0.959409
      vertex -4 -0.9 2
    endloop
  endfacet
  facet normal 2.73844e-16 0.707107 -0.707107
    outer loop
      vertex -0.209057 -1.98904 0.910956
      vertex -3.44 -2.1 0.8
      vertex -0.483844 -1.94059 0.959409
    endloop
  endfacet
  facet normal 2.04578e-16 0.707107 -0.707107
    outer loop
      vertex 0.347296 -1.96962 0.930384
      vertex 3.5 -1.9 1
      vertex 0.069799 -1.99878 0.901218
    endloop
  endfacet
  facet normal -2.47442e-16 0.707107 -0.707107
    outer loop
      vertex 0.876742 -1.79759 1.10241
      vertex 4.08 -0.7 2.2
      vertex 0.618034 -1.90211 0.997887
    endloop
  endfacet
  facet normal 6.51449e-16 0.707107 -0.707107
    outer loop
      vertex 1.11839 -1.65807 1.24192
      vertex 4.08 -0.7 2.2
      vertex 0.876742 -1.79759 1.10241
    endloop
  endfacet
  facet normal 4.94902e-16 0.707107 -0.707107
    outer loop
      vertex 1.33826 -1.48629 1.41371
      vertex 4.08 -0.7 2.2
      vertex 1.11839 -1.65807 1.24192
    endloop
  endfacet
  facet normal 8.00509e-17 0.707107 -0.707107
    outer loop
      vertex 1.53209 -1.28557 1.61443
      vertex 4.08 -0.7 2.2
      vertex 1.33826 -1.48629 1.41371
    endloop
  endfacet
  facet normal 3.05542e-16 0.707107 -0.707107
    outer loop
      vertex 1.6961 -1.05984 1.84016
      vertex 4.08 -0.7 2.2
      vertex 1.53209 -1.28557 1.61443
    endloop
  endfacet
  facet normal 3.90735e-16 0.707107 -0.707107
    outer loop
      vertex 1.82709 -0.813473 2.08653
      vertex 1.86839 -0.7 2.2
      vertex 4.08 -0.7 2.2
    endloop
  endfacet
  facet normal 2.4204e-16 0.707107 -0.707107
    outer loop
      vertex 1.82709 -0.813473 2.08653
      vertex 4.08 -0.7 2.2
      vertex 1.6961 -1.05984 1.84016
    endloop
  endfacet
  facet normal 3.94522e-16 0.707107 -0.707107
    outer loop
      vertex 0.618034 -1.90211 0.997887
      vertex 4.08 -0.7 2.2
      vertex 4 -0.9 2
    endloop
  endfacet
  facet normal 2.17854e-16 0.707107 -0.707107
    outer loop
      vertex 0.618034 -1.90211 0.997887
      vertex 4 -0.9 2
      vertex 3.5 -1.9 1
    endloop
  endfacet
  facet normal 2.17791e-16 0.707107 -0.707107
    outer loop
      vertex 0.618034 -1.90211 0.997887
      vertex 3.5 -1.9 1
      vertex 0.347296 -1.96962 0.930384
    endloop
  endfacet
  facet normal 2.33435e-16 0.707107 -0.707107
    outer loop
      vertex 0.069799 -1.99878 0.901218
      vertex 3.5 -1.9 1
      vertex 3.44 -2.1 0.8
    endloop
  endfacet
  facet normal 2.38686e-16 0.707107 -0.707107
    outer loop
      vertex 0.069799 -1.99878 0.901218
      vertex 3.44 -2.1 0.8
      vertex -3.44 -2.1 0.8
    endloop
  endfacet
  facet normal 1.34313e-16 0.707107 -0.707107
    outer loop
      vertex 0.069799 -1.99878 0.901218
      vertex -3.44 -2.1 0.8
      vertex -0.209057 -1.98904 0.910956
    endloop
  endfacet
  facet normal 2.61191e-16 0.707107 -0.707107
    outer loop
      vertex -0.483844 -1.94059 0.959409
      vertex -3.44 -2.1 0.8
      vertex -3.5 -1.9 1
    endloop
  endfacet
  facet normal 2.63229e-16 0.707107 -0.707107
    outer loop
      vertex -0.483844 -1.94059 0.959409
      vertex -3.5 -1.9 1
      vertex -4 -0.9 2
    endloop
  endfacet
  facet normal 0.913546 0.406736 0
    outer loop
      vertex -1.87938 -0.68404 17.3677
      vertex -1.76589 -0.938943 17.5568
      vertex -1.76589 -0.938943 1.96106
    endloop
  endfacet
  facet normal 0.913546 0.406736 0
    outer loop
      vertex -1.87938 -0.68404 2.22394
      vertex -1.87938 -0.68404 17.3677
      vertex -1.87228 -0.7 2.2
    endloop
  endfacet
  facet normal 0.913546 0.406736 5.5072e-18
    outer loop
      vertex -1.87228 -0.7 2.2
      vertex -1.87938 -0.68404 17.3677
      vertex -1.76589 -0.938943 1.96106
    endloop
  endfacet
  facet normal 0.961262 0.275637 0
    outer loop
      vertex -1.95629 -0.415823 17.2395
      vertex -1.87938 -0.68404 17.3677
      vertex -1.87938 -0.68404 2.22394
    endloop
  endfacet
  facet normal 0.961262 0.275637 0
    outer loop
      vertex -1.95629 -0.415823 2.62627
      vertex -1.95629 -0.415823 17.2395
      vertex -1.87938 -0.68404 2.22394
    endloop
  endfacet
  facet normal 0.990268 0.139174 0
    outer loop
      vertex -1.99513 -0.139513 17.1748
      vertex -1.95629 -0.415823 17.2395
      vertex -1.95629 -0.415823 2.62627
    endloop
  endfacet
  facet normal 0.990268 0.139174 0
    outer loop
      vertex -1.99513 -0.139513 3.04073
      vertex -1.99513 -0.139513 17.1748
      vertex -1.95629 -0.415823 2.62627
    endloop
  endfacet
  facet normal 1 0 0
    outer loop
      vertex -1.99513 0.05 3.325
      vertex -1.99513 0.139513 3.19073
      vertex -1.99513 0.139513 17.1748
    endloop
  endfacet
  facet normal 1 0 0
    outer loop
      vertex -1.99513 -0.139513 3.04073
      vertex -1.99513 0.05 3.325
      vertex -1.99513 -0.139513 17.1748
    endloop
  endfacet
  facet normal 1 0 0
    outer loop
      vertex -1.99513 -0.139513 17.1748
      vertex -1.99513 0.05 3.325
      vertex -1.99513 0.139513 17.1748
    endloop
  endfacet
  facet normal 0.990268 -0.139174 0
    outer loop
      vertex -1.95629 0.415823 2.77627
      vertex -1.95629 0.415823 17.2395
      vertex -1.99513 0.139513 17.1748
    endloop
  endfacet
  facet normal 0.990268 -0.139174 0
    outer loop
      vertex -1.99513 0.139513 3.19073
      vertex -1.95629 0.415823 2.77627
      vertex -1.99513 0.139513 17.1748
    endloop
  endfacet
  facet normal 0.961262 -0.275637 0
    outer loop
      vertex -1.87938 0.68404 2.37394
      vertex -1.87938 0.68404 17.3677
      vertex -1.95629 0.415823 17.2395
    endloop
  endfacet
  facet normal 0.961262 -0.275637 0
    outer loop
      vertex -1.95629 0.415823 2.77627
      vertex -1.87938 0.68404 2.37394
      vertex -1.95629 0.415823 17.2395
    endloop
  endfacet
  facet normal 0.913546 -0.406736 0
    outer loop
      vertex -1.82776 0.8 2.2
      vertex -1.76589 0.938943 2.06106
      vertex -1.76589 0.938943 17.5568
    endloop
  endfacet
  facet normal 0.913546 -0.406736 0
    outer loop
      vertex -1.87938 0.68404 2.37394
      vertex -1.82776 0.8 2.2
      vertex -1.87938 0.68404 17.3677
    endloop
  endfacet
  facet normal 0.913546 -0.406736 4.02903e-18
    outer loop
      vertex -1.87938 0.68404 17.3677
      vertex -1.82776 0.8 2.2
      vertex -1.76589 0.938943 17.5568
    endloop
  endfacet
  facet normal 2.78849e-16 -0.707107 -0.707107
    outer loop
      vertex -1.82776 0.8 2.2
      vertex -4.08 0.8 2.2
      vertex -4 1 2
    endloop
  endfacet
  facet normal 6.27568e-16 -0.707107 -0.707107
    outer loop
      vertex -3.44 2.2 0.8
      vertex -1.82776 0.8 2.2
      vertex -3.5 2 1
    endloop
  endfacet
  facet normal 1.93228e-16 -0.707107 -0.707107
    outer loop
      vertex -3.5 2 1
      vertex -1.82776 0.8 2.2
      vertex -4 1 2
    endloop
  endfacet
  facet normal -6.19791e-16 -0.707107 -0.707107
    outer loop
      vertex -1.76589 0.938943 2.06106
      vertex -1.82776 0.8 2.2
      vertex -3.44 2.2 0.8
    endloop
  endfacet
  facet normal 5.2299e-17 -0.707107 -0.707107
    outer loop
      vertex 0.069799 1.99878 1.00122
      vertex -0.209057 1.98904 1.01096
      vertex -3.44 2.2 0.8
    endloop
  endfacet
  facet normal 2.56621e-16 -0.707107 -0.707107
    outer loop
      vertex -0.483844 1.94059 1.05941
      vertex -0.749213 1.85437 1.14563
      vertex -3.44 2.2 0.8
    endloop
  endfacet
  facet normal 9.90082e-17 -0.707107 -0.707107
    outer loop
      vertex 1.33826 1.48629 1.51371
      vertex 3.44 2.2 0.8
      vertex 3.5 2 1
    endloop
  endfacet
  facet normal 2.79375e-16 -0.707107 -0.707107
    outer loop
      vertex 4.08 0.8 2.2
      vertex 1.83199 0.8 2.2
      vertex 4 1 2
    endloop
  endfacet
  facet normal -8.59372e-16 -0.707107 -0.707107
    outer loop
      vertex 1.83199 0.8 2.2
      vertex 1.82709 0.813473 2.18653
      vertex 4 1 2
    endloop
  endfacet
  facet normal 7.15808e-17 -0.707107 -0.707107
    outer loop
      vertex 4 1 2
      vertex 1.6961 1.05984 1.94016
      vertex 3.5 2 1
    endloop
  endfacet
  facet normal 1.1376e-16 -0.707107 -0.707107
    outer loop
      vertex 1.6961 1.05984 1.94016
      vertex 1.53209 1.28557 1.71443
      vertex 3.5 2 1
    endloop
  endfacet
  facet normal 2.84951e-16 -0.707107 -0.707107
    outer loop
      vertex 1.53209 1.28557 1.71443
      vertex 1.33826 1.48629 1.51371
      vertex 3.5 2 1
    endloop
  endfacet
  facet normal 7.0875e-17 -0.707107 -0.707107
    outer loop
      vertex 3.44 2.2 0.8
      vertex 1.11839 1.65807 1.34192
      vertex 0.876742 1.79759 1.20241
    endloop
  endfacet
  facet normal 1.05026e-16 -0.707107 -0.707107
    outer loop
      vertex 3.44 2.2 0.8
      vertex 0.876742 1.79759 1.20241
      vertex 0.618034 1.90211 1.09789
    endloop
  endfacet
  facet normal 1.0446e-16 -0.707107 -0.707107
    outer loop
      vertex -0.209057 1.98904 1.01096
      vertex -0.483844 1.94059 1.05941
      vertex -3.44 2.2 0.8
    endloop
  endfacet
  facet normal 2.81262e-16 -0.707107 -0.707107
    outer loop
      vertex 3.44 2.2 0.8
      vertex 0.618034 1.90211 1.09789
      vertex 0.347296 1.96962 1.03038
    endloop
  endfacet
  facet normal 1.48337e-16 -0.707107 -0.707107
    outer loop
      vertex 3.44 2.2 0.8
      vertex 0.069799 1.99878 1.00122
      vertex -3.44 2.2 0.8
    endloop
  endfacet
  facet normal 9.03924e-17 -0.707107 -0.707107
    outer loop
      vertex 3.44 2.2 0.8
      vertex 0.347296 1.96962 1.03038
      vertex 0.069799 1.99878 1.00122
    endloop
  endfacet
  facet normal 7.47563e-17 -0.707107 -0.707107
    outer loop
      vertex -0.749213 1.85437 1.14563
      vertex -1 1.73205 1.26795
      vertex -3.44 2.2 0.8
    endloop
  endfacet
  facet normal 8.96137e-17 -0.707107 -0.707107
    outer loop
      vertex -1 1.73205 1.26795
      vertex -1.23132 1.57602 1.42398
      vertex -3.44 2.2 0.8
    endloop
  endfacet
  facet normal 1.32543e-16 -0.707107 -0.707107
    outer loop
      vertex -1.23132 1.57602 1.42398
      vertex -1.43868 1.38932 1.61068
      vertex -3.44 2.2 0.8
    endloop
  endfacet
  facet normal 3.42864e-16 -0.707107 -0.707107
    outer loop
      vertex -1.43868 1.38932 1.61068
      vertex -1.61803 1.17557 1.82443
      vertex -3.44 2.2 0.8
    endloop
  endfacet
  facet normal 2.23653e-16 -0.707107 -0.707107
    outer loop
      vertex -1.61803 1.17557 1.82443
      vertex -1.76589 0.938943 2.06106
      vertex -3.44 2.2 0.8
    endloop
  endfacet
  facet normal 8.27718e-17 -0.707107 -0.707107
    outer loop
      vertex 1.82709 0.813473 2.18653
      vertex 1.6961 1.05984 1.94016
      vertex 4 1 2
    endloop
  endfacet
  facet normal 1.46451e-16 -0.707107 -0.707107
    outer loop
      vertex 1.33826 1.48629 1.51371
      vertex 1.11839 1.65807 1.34192
      vertex 3.44 2.2 0.8
    endloop
  endfacet
  facet normal -0.894427 3.80138e-16 -0.447214
    outer loop
      vertex -4 9 2
      vertex -3.5 8 1
      vertex -3.5 2 1
    endloop
  endfacet
  facet normal -0.894427 2.97904e-16 -0.447214
    outer loop
      vertex -4 9 2
      vertex -3.5 2 1
      vertex -4 1 2
    endloop
  endfacet
  facet normal 0.928477 -4.61032e-16 0.371391
    outer loop
      vertex 3.92 -5.9 13.2
      vertex 4.4 -6.7 12
      vertex 4.4 6.8 12
    endloop
  endfacet
  facet normal 0.928477 -4.4827e-16 0.371391
    outer loop
      vertex 3.6 5.4 14
      vertex 3.92 -5.9 13.2
      vertex 3.92 6 13.2
    endloop
  endfacet
  facet normal 0.928477 -4.50441e-16 0.371391
    outer loop
      vertex 3.92 6 13.2
      vertex 3.92 -5.9 13.2
      vertex 4.4 6.8 12
    endloop
  endfacet
  facet normal 0.928477 -4.31594e-16 0.371391
    outer loop
      vertex 3.6 -5.3 14
      vertex 3.92 -5.9 13.2
      vertex 3.6 5.4 14
    endloop
  endfacet
  facet normal -1.35946e-16 0.8 0.6
    outer loop
      vertex -3.92 6 13.2
      vertex -3.6 5.4 14
      vertex 3.92 6 13.2
    endloop
  endfacet
  facet normal -1.74288e-16 0.8 0.6
    outer loop
      vertex 3.92 6 13.2
      vertex -3.6 5.4 14
      vertex -3.24 4.8 14.8
    endloop
  endfacet
  facet normal -1.64688e-16 0.8 0.6
    outer loop
      vertex 3.92 6 13.2
      vertex -3.24 4.8 14.8
      vertex 3.24 4.8 14.8
    endloop
  endfacet
  facet normal -1.06581e-14 0.8 0.6
    outer loop
      vertex 3.92 6 13.2
      vertex 3.24 4.8 14.8
      vertex 3.6 5.4 14
    endloop
  endfacet
  facet normal -2.37741e-16 -0.8 0.6
    outer loop
      vertex -3.6 -5.3 14
      vertex -3.92 -5.9 13.2
      vertex 3.92 -5.9 13.2
    endloop
  endfacet
  facet normal -2.36717e-16 -0.8 0.6
    outer loop
      vertex 3.24 -4.7 14.8
      vertex -3.6 -5.3 14
      vertex 3.6 -5.3 14
    endloop
  endfacet
  facet normal -2.46716e-16 -0.8 0.6
    outer loop
      vertex 3.6 -5.3 14
      vertex -3.6 -5.3 14
      vertex 3.92 -5.9 13.2
    endloop
  endfacet
  facet normal -2.74129e-16 -0.8 0.6
    outer loop
      vertex -3.24 -4.7 14.8
      vertex -3.6 -5.3 14
      vertex 3.24 -4.7 14.8
    endloop
  endfacet
  facet normal -0.911922 6.44833e-17 0.410365
    outer loop
      vertex -2.7 -3.71818 16
      vertex -2.7 3.81818 16
      vertex -3.24 -4.7 14.8
    endloop
  endfacet
  facet normal -0.911922 8.52578e-17 0.410365
    outer loop
      vertex -3.24 -4.7 14.8
      vertex -2.7 3.81818 16
      vertex -3.24 4.8 14.8
    endloop
  endfacet
  facet normal -0.911922 8.52578e-17 0.410365
    outer loop
      vertex -3.24 -4.7 14.8
      vertex -3.24 4.8 14.8
      vertex -3.6 5.4 14
    endloop
  endfacet
  facet normal -0.911922 1.22538e-16 0.410365
    outer loop
      vertex -3.24 -4.7 14.8
      vertex -3.6 5.4 14
      vertex -3.6 -5.3 14
    endloop
  endfacet
  facet normal 1.57009e-16 0.707107 -0.707107
    outer loop
      vertex -4 9 2
      vertex 4 9 2
      vertex -3.5 8 1
    endloop
  endfacet
  facet normal 6.72897e-17 0.707107 -0.707107
    outer loop
      vertex -3.5 8 1
      vertex 4 9 2
      vertex 3.5 8 1
    endloop
  endfacet
  facet normal 0.894427 -1.15852e-16 -0.447214
    outer loop
      vertex 3.5 2 1
      vertex 3.5 8 1
      vertex 4 1 2
    endloop
  endfacet
  facet normal 0.894427 -9.93014e-17 -0.447214
    outer loop
      vertex 4 1 2
      vertex 3.5 8 1
      vertex 4 9 2
    endloop
  endfacet
  facet normal 0.894427 -1.61559e-16 -0.447214
    outer loop
      vertex 3.5 -1.9 1
      vertex 4 -0.9 2
      vertex 4 -8.9 2
    endloop
  endfacet
  facet normal 0.894427 -1.73777e-16 -0.447214
    outer loop
      vertex 3.5 -7.9 1
      vertex 3.5 -1.9 1
      vertex 4 -8.9 2
    endloop
  endfacet
  facet normal -0.997564 -0.069757 -0
    outer loop
      vertex 2 0 3.25
      vertex 2 0 17.1667
      vertex 1.9965 0.05 3.325
    endloop
  endfacet
  facet normal -0.997564 -0.069757 4.17763e-18
    outer loop
      vertex 1.9965 0.05 3.325
      vertex 2 0 17.1667
      vertex 1.98054 0.278346 17.1991
    endloop
  endfacet
  facet normal -0.997564 -0.069757 0
    outer loop
      vertex 1.9965 0.05 3.325
      vertex 1.98054 0.278346 17.1991
      vertex 1.98054 0.278346 2.98248
    endloop
  endfacet
  facet normal -0.997564 0.069757 0
    outer loop
      vertex 2 0 17.1667
      vertex 2 0 3.25
      vertex 1.98054 -0.278346 17.1991
    endloop
  endfacet
  facet normal -0.997564 0.069757 0
    outer loop
      vertex 1.98054 -0.278346 17.1991
      vertex 2 0 3.25
      vertex 1.98054 -0.278346 2.83248
    endloop
  endfacet
  facet normal -0.978147 0.207912 0
    outer loop
      vertex 1.98054 -0.278346 17.1991
      vertex 1.98054 -0.278346 2.83248
      vertex 1.92252 -0.551275 17.2958
    endloop
  endfacet
  facet normal -0.978147 0.207912 0
    outer loop
      vertex 1.92252 -0.551275 17.2958
      vertex 1.98054 -0.278346 2.83248
      vertex 1.92252 -0.551275 2.42309
    endloop
  endfacet
  facet normal -0.939693 0.342019 0
    outer loop
      vertex 1.92252 -0.551275 17.2958
      vertex 1.92252 -0.551275 2.42309
      vertex 1.82709 -0.813473 17.4548
    endloop
  endfacet
  facet normal -0.939693 0.342019 1.35644e-17
    outer loop
      vertex 1.82709 -0.813473 17.4548
      vertex 1.92252 -0.551275 2.42309
      vertex 1.86839 -0.7 2.2
    endloop
  endfacet
  facet normal -0.939693 0.342019 0
    outer loop
      vertex 1.82709 -0.813473 17.4548
      vertex 1.86839 -0.7 2.2
      vertex 1.82709 -0.813473 2.08653
    endloop
  endfacet
  facet normal -0.978147 -0.207912 0
    outer loop
      vertex 1.98054 0.278346 17.1991
      vertex 1.92252 0.551275 17.2958
      vertex 1.98054 0.278346 2.98248
    endloop
  endfacet
  facet normal -0.978147 -0.207912 0
    outer loop
      vertex 1.98054 0.278346 2.98248
      vertex 1.92252 0.551275 17.2958
      vertex 1.92252 0.551275 2.57309
    endloop
  endfacet
  facet normal -0.939693 -0.342019 -0
    outer loop
      vertex 1.92252 0.551275 2.57309
      vertex 1.92252 0.551275 17.2958
      vertex 1.83199 0.8 2.2
    endloop
  endfacet
  facet normal -0.939693 -0.342019 1.17688e-17
    outer loop
      vertex 1.83199 0.8 2.2
      vertex 1.92252 0.551275 17.2958
      vertex 1.82709 0.813473 17.4548
    endloop
  endfacet
  facet normal -0.939693 -0.342019 0
    outer loop
      vertex 1.83199 0.8 2.2
      vertex 1.82709 0.813473 17.4548
      vertex 1.82709 0.813473 2.18653
    endloop
  endfacet
  facet normal 1.03361e-16 -0.514496 -0.857493
    outer loop
      vertex 3.5 -7.9 1
      vertex -3.5 -7.9 1
      vertex -3.32 -6.9 0.4
    endloop
  endfacet
  facet normal 1.35458e-16 -0.514496 -0.857493
    outer loop
      vertex 3.5 -7.9 1
      vertex -3.32 -6.9 0.4
      vertex 3.32 -6.9 0.4
    endloop
  endfacet
  facet normal -0.957826 1.07669e-15 -0.287348
    outer loop
      vertex -3.44 -2.1 0.8
      vertex -3.32 -2.7 0.4
      vertex -3.5 -1.9 1
    endloop
  endfacet
  facet normal -0.957826 2.1268e-16 -0.287348
    outer loop
      vertex -3.5 -1.9 1
      vertex -3.32 -2.7 0.4
      vertex -3.2 -3.5 -7.10543e-16
    endloop
  endfacet
  facet normal -0.957826 1.77233e-16 -0.287348
    outer loop
      vertex -3.5 -1.9 1
      vertex -3.2 -3.5 -7.10543e-16
      vertex -3.2 -5.9 -7.10543e-16
    endloop
  endfacet
  facet normal -0.957826 3.75449e-16 -0.287348
    outer loop
      vertex -3.5 -1.9 1
      vertex -3.2 -5.9 -7.10543e-16
      vertex -3.32 -6.9 0.4
    endloop
  endfacet
  facet normal -0.957826 2.76484e-16 -0.287348
    outer loop
      vertex -3.5 -1.9 1
      vertex -3.32 -6.9 0.4
      vertex -3.5 -7.9 1
    endloop
  endfacet
  facet normal 2.46157e-16 0.5547 -0.83205
    outer loop
      vertex -3.44 -2.1 0.8
      vertex 3.44 -2.1 0.8
      vertex -3.32 -2.7 0.4
    endloop
  endfacet
  facet normal 2.62011e-16 0.5547 -0.83205
    outer loop
      vertex -3.32 -2.7 0.4
      vertex 3.44 -2.1 0.8
      vertex 3.32 -2.7 0.4
    endloop
  endfacet
  facet normal 0.957826 1.954e-15 -0.287348
    outer loop
      vertex 3.2 -3.5 7.10543e-16
      vertex 3.32 -2.7 0.4
      vertex 3.44 -2.1 0.8
    endloop
  endfacet
  facet normal 0.957826 -2.58761e-16 -0.287348
    outer loop
      vertex 3.5 -7.9 1
      vertex 3.2 -3.5 7.10543e-16
      vertex 3.5 -1.9 1
    endloop
  endfacet
  facet normal 0.957826 -8.50721e-16 -0.287348
    outer loop
      vertex 3.5 -1.9 1
      vertex 3.2 -3.5 7.10543e-16
      vertex 3.44 -2.1 0.8
    endloop
  endfacet
  facet normal 0.957826 -2.51808e-16 -0.287348
    outer loop
      vertex 3.32 -6.9 0.4
      vertex 3.2 -3.5 7.10543e-16
      vertex 3.5 -7.9 1
    endloop
  endfacet
  facet normal 0.957826 -1.77233e-16 -0.287348
    outer loop
      vertex 3.2 -5.9 7.10543e-16
      vertex 3.2 -3.5 7.10543e-16
      vertex 3.32 -6.9 0.4
    endloop
  endfacet
  facet normal -0.882948 0.469471 0
    outer loop
      vertex 1.82709 -0.813473 17.4548
      vertex 1.82709 -0.813473 2.08653
      vertex 1.6961 -1.05984 17.6732
    endloop
  endfacet
  facet normal -0.882948 0.469471 0
    outer loop
      vertex 1.6961 -1.05984 17.6732
      vertex 1.82709 -0.813473 2.08653
      vertex 1.6961 -1.05984 1.84016
    endloop
  endfacet
  facet normal -0.809017 0.587786 0
    outer loop
      vertex 1.6961 -1.05984 17.6732
      vertex 1.6961 -1.05984 1.84016
      vertex 1.53209 -1.28557 17.9465
    endloop
  endfacet
  facet normal -0.809017 0.587786 0
    outer loop
      vertex 1.53209 -1.28557 17.9465
      vertex 1.6961 -1.05984 1.84016
      vertex 1.53209 -1.28557 1.61443
    endloop
  endfacet
  facet normal -0.71934 0.694658 -1.73926e-14
    outer loop
      vertex 1.5 -1.3188 18
      vertex 1.53209 -1.28557 17.9465
      vertex 1.33826 -1.48629 18.1941
    endloop
  endfacet
  facet normal -0.71934 0.694658 0
    outer loop
      vertex 1.33826 -1.48629 18.1941
      vertex 1.53209 -1.28557 17.9465
      vertex 1.53209 -1.28557 1.61443
    endloop
  endfacet
  facet normal -0.71934 0.694658 0
    outer loop
      vertex 1.33826 -1.48629 18.1941
      vertex 1.53209 -1.28557 1.61443
      vertex 1.33826 -1.48629 1.41371
    endloop
  endfacet
  facet normal -0.615661 0.788011 -2.32735e-15
    outer loop
      vertex 1.22741 -1.57289 18.3271
      vertex 1.33826 -1.48629 18.1941
      vertex 1.11839 -1.65807 18.2419
    endloop
  endfacet
  facet normal -0.615661 0.788011 0
    outer loop
      vertex 1.11839 -1.65807 18.2419
      vertex 1.33826 -1.48629 18.1941
      vertex 1.33826 -1.48629 1.41371
    endloop
  endfacet
  facet normal -0.615661 0.788011 0
    outer loop
      vertex 1.11839 -1.65807 18.2419
      vertex 1.33826 -1.48629 1.41371
      vertex 1.11839 -1.65807 1.24192
    endloop
  endfacet
  facet normal -0.499999 0.866026 0
    outer loop
      vertex 1.11839 -1.65807 18.2419
      vertex 1.11839 -1.65807 1.24192
      vertex 0.876742 -1.79759 18.1024
    endloop
  endfacet
  facet normal -0.499999 0.866026 0
    outer loop
      vertex 0.876742 -1.79759 18.1024
      vertex 1.11839 -1.65807 1.24192
      vertex 0.876742 -1.79759 1.10241
    endloop
  endfacet
  facet normal -0.374607 0.927184 0
    outer loop
      vertex 0.876742 -1.79759 18.1024
      vertex 0.876742 -1.79759 1.10241
      vertex 0.618034 -1.90211 17.9979
    endloop
  endfacet
  facet normal -0.374607 0.927184 0
    outer loop
      vertex 0.618034 -1.90211 17.9979
      vertex 0.876742 -1.79759 1.10241
      vertex 0.618034 -1.90211 0.997887
    endloop
  endfacet
  facet normal -0.241923 0.970295 0
    outer loop
      vertex 0.618034 -1.90211 17.9979
      vertex 0.618034 -1.90211 0.997887
      vertex 0.347296 -1.96962 17.9304
    endloop
  endfacet
  facet normal -0.241923 0.970295 0
    outer loop
      vertex 0.347296 -1.96962 17.9304
      vertex 0.618034 -1.90211 0.997887
      vertex 0.347296 -1.96962 0.930384
    endloop
  endfacet
  facet normal -0.104528 0.994522 0
    outer loop
      vertex 0.347296 -1.96962 17.9304
      vertex 0.347296 -1.96962 0.930384
      vertex 0.069799 -1.99878 17.9012
    endloop
  endfacet
  facet normal -0.104528 0.994522 0
    outer loop
      vertex 0.069799 -1.99878 17.9012
      vertex 0.347296 -1.96962 0.930384
      vertex 0.069799 -1.99878 0.901218
    endloop
  endfacet
  facet normal 0.0349 0.999391 -0
    outer loop
      vertex 0.069799 -1.99878 17.9012
      vertex 0.069799 -1.99878 0.901218
      vertex -0.209057 -1.98904 17.911
    endloop
  endfacet
  facet normal 0.0349 0.999391 -0
    outer loop
      vertex -0.209057 -1.98904 17.911
      vertex 0.069799 -1.99878 0.901218
      vertex -0.209057 -1.98904 0.910956
    endloop
  endfacet
  facet normal 0.17365 0.984807 -0
    outer loop
      vertex -0.209057 -1.98904 17.911
      vertex -0.209057 -1.98904 0.910956
      vertex -0.483844 -1.94059 17.9594
    endloop
  endfacet
  facet normal 0.17365 0.984807 -0
    outer loop
      vertex -0.483844 -1.94059 17.9594
      vertex -0.209057 -1.98904 0.910956
      vertex -0.483844 -1.94059 0.959409
    endloop
  endfacet
  facet normal 0.309015 0.951057 -0
    outer loop
      vertex -0.483844 -1.94059 17.9594
      vertex -0.483844 -1.94059 0.959409
      vertex -0.749213 -1.85437 18.0456
    endloop
  endfacet
  facet normal 0.309015 0.951057 -0
    outer loop
      vertex -0.749213 -1.85437 18.0456
      vertex -0.483844 -1.94059 0.959409
      vertex -0.749213 -1.85437 1.04563
    endloop
  endfacet
  facet normal 0.438371 0.898794 -0
    outer loop
      vertex -0.749213 -1.85437 18.0456
      vertex -0.749213 -1.85437 1.04563
      vertex -1 -1.73205 18.1679
    endloop
  endfacet
  facet normal 0.438371 0.898794 -0
    outer loop
      vertex -1 -1.73205 18.1679
      vertex -0.749213 -1.85437 1.04563
      vertex -1 -1.73205 1.16795
    endloop
  endfacet
  facet normal 0.559192 0.829038 -8.52193e-14
    outer loop
      vertex -1.23049 -1.57659 18.3234
      vertex -1 -1.73205 18.1679
      vertex -1.23132 -1.57602 18.3224
    endloop
  endfacet
  facet normal 0.559192 0.829038 0
    outer loop
      vertex -1.23132 -1.57602 18.3224
      vertex -1 -1.73205 18.1679
      vertex -1 -1.73205 1.16795
    endloop
  endfacet
  facet normal 0.559192 0.829038 -0
    outer loop
      vertex -1.23132 -1.57602 18.3224
      vertex -1 -1.73205 1.16795
      vertex -1.23132 -1.57602 1.32398
    endloop
  endfacet
  facet normal 0.66913 0.743145 -0
    outer loop
      vertex -1.23132 -1.57602 18.3224
      vertex -1.23132 -1.57602 1.32398
      vertex -1.43868 -1.38932 18.0736
    endloop
  endfacet
  facet normal 0.66913 0.743145 -0
    outer loop
      vertex -1.43868 -1.38932 18.0736
      vertex -1.23132 -1.57602 1.32398
      vertex -1.43868 -1.38932 1.51068
    endloop
  endfacet
  facet normal 0.766045 0.642787 -7.71875e-15
    outer loop
      vertex -1.61803 -1.17557 17.8033
      vertex -1.5 -1.31624 18
      vertex -1.43868 -1.38932 18.0736
    endloop
  endfacet
  facet normal 0.766045 0.642787 0
    outer loop
      vertex -1.61803 -1.17557 1.72443
      vertex -1.61803 -1.17557 17.8033
      vertex -1.43868 -1.38932 1.51068
    endloop
  endfacet
  facet normal 0.766045 0.642787 0
    outer loop
      vertex -1.43868 -1.38932 1.51068
      vertex -1.61803 -1.17557 17.8033
      vertex -1.43868 -1.38932 18.0736
    endloop
  endfacet
  facet normal 0.848049 0.529918 0
    outer loop
      vertex -1.76589 -0.938943 17.5568
      vertex -1.61803 -1.17557 17.8033
      vertex -1.61803 -1.17557 1.72443
    endloop
  endfacet
  facet normal 0.848049 0.529918 0
    outer loop
      vertex -1.76589 -0.938943 1.96106
      vertex -1.76589 -0.938943 17.5568
      vertex -1.61803 -1.17557 1.72443
    endloop
  endfacet
  facet normal -0.857493 0 0.514496
    outer loop
      vertex -1.5 -1.9 18
      vertex -1.5 -1.31624 18
      vertex -2.1 -2.9 17
    endloop
  endfacet
  facet normal -0.857493 -2.03449e-15 0.514496
    outer loop
      vertex -2.1 -2.9 17
      vertex -1.5 -1.31624 18
      vertex -1.61803 -1.17557 17.8033
    endloop
  endfacet
  facet normal -0.857493 6.69688e-16 0.514496
    outer loop
      vertex -2.1 -2.9 17
      vertex -1.61803 -1.17557 17.8033
      vertex -1.76589 -0.938943 17.5568
    endloop
  endfacet
  facet normal -0.857493 -1.09309e-15 0.514496
    outer loop
      vertex -1.76589 -0.938943 17.5568
      vertex -1.87938 -0.68404 17.3677
      vertex -2.1 -2.9 17
    endloop
  endfacet
  facet normal -0.857493 -8.49415e-16 0.514496
    outer loop
      vertex -1.87938 -0.68404 17.3677
      vertex -1.95629 -0.415823 17.2395
      vertex -2.1 -2.9 17
    endloop
  endfacet
  facet normal -0.857493 -2.57845e-16 0.514496
    outer loop
      vertex -1.95629 -0.415823 17.2395
      vertex -1.99513 -0.139513 17.1748
      vertex -2.1 -2.9 17
    endloop
  endfacet
  facet normal -0.857493 0 0.514496
    outer loop
      vertex -1.99513 -0.139513 17.1748
      vertex -1.99513 0.139513 17.1748
      vertex -2.1 -2.9 17
    endloop
  endfacet
  facet normal -0.857493 6.66313e-17 0.514496
    outer loop
      vertex -1.99513 0.139513 17.1748
      vertex -2.1 3 17
      vertex -2.1 -2.9 17
    endloop
  endfacet
  facet normal -0.857493 3.51076e-16 0.514496
    outer loop
      vertex -1.95629 0.415823 17.2395
      vertex -2.1 3 17
      vertex -1.99513 0.139513 17.1748
    endloop
  endfacet
  facet normal -0.857493 -7.02434e-15 0.514496
    outer loop
      vertex -1.76589 0.938943 17.5568
      vertex -1.5 2 18
      vertex -1.87938 0.68404 17.3677
    endloop
  endfacet
  facet normal -0.857493 2.40523e-16 0.514496
    outer loop
      vertex -1.61803 1.17557 17.8033
      vertex -1.5 1.31624 18
      vertex -1.5 2 18
    endloop
  endfacet
  facet normal -0.857493 8.7794e-16 0.514496
    outer loop
      vertex -1.61803 1.17557 17.8033
      vertex -1.5 2 18
      vertex -1.76589 0.938943 17.5568
    endloop
  endfacet
  facet normal -0.857493 4.66852e-16 0.514496
    outer loop
      vertex -1.87938 0.68404 17.3677
      vertex -1.5 2 18
      vertex -2.1 3 17
    endloop
  endfacet
  facet normal -0.857493 9.48171e-16 0.514496
    outer loop
      vertex -1.87938 0.68404 17.3677
      vertex -2.1 3 17
      vertex -1.95629 0.415823 17.2395
    endloop
  endfacet
  facet normal -0.857493 6.45429e-17 0.514496
    outer loop
      vertex -2.1 -2.9 17
      vertex -2.1 3 17
      vertex -2.7 3.81818 16
    endloop
  endfacet
  facet normal -0.857493 3.56338e-17 0.514496
    outer loop
      vertex -2.1 -2.9 17
      vertex -2.7 3.81818 16
      vertex -2.7 -3.71818 16
    endloop
  endfacet
  facet normal 0.848049 -0.529918 0
    outer loop
      vertex -1.61803 1.17557 1.82443
      vertex -1.61803 1.17557 17.8033
      vertex -1.76589 0.938943 17.5568
    endloop
  endfacet
  facet normal 0.848049 -0.529918 0
    outer loop
      vertex -1.76589 0.938943 2.06106
      vertex -1.61803 1.17557 1.82443
      vertex -1.76589 0.938943 17.5568
    endloop
  endfacet
  facet normal 0.766045 -0.642787 0
    outer loop
      vertex -1.43868 1.38932 1.61068
      vertex -1.43868 1.38932 18.0736
      vertex -1.5 1.31624 18
    endloop
  endfacet
  facet normal 0.766045 -0.642787 0
    outer loop
      vertex -1.61803 1.17557 1.82443
      vertex -1.43868 1.38932 1.61068
      vertex -1.61803 1.17557 17.8033
    endloop
  endfacet
  facet normal 0.766045 -0.642787 -2.22949e-17
    outer loop
      vertex -1.61803 1.17557 17.8033
      vertex -1.43868 1.38932 1.61068
      vertex -1.5 1.31624 18
    endloop
  endfacet
  facet normal 0.66913 -0.743145 0
    outer loop
      vertex -1.23132 1.57602 1.42398
      vertex -1.23132 1.57602 18.3224
      vertex -1.43868 1.38932 18.0736
    endloop
  endfacet
  facet normal 0.66913 -0.743145 0
    outer loop
      vertex -1.43868 1.38932 1.61068
      vertex -1.23132 1.57602 1.42398
      vertex -1.43868 1.38932 18.0736
    endloop
  endfacet
  facet normal 0.559192 -0.829038 0
    outer loop
      vertex -1 1.73205 1.26795
      vertex -1 1.73205 18.2679
      vertex -1.17714 1.61257 18.3874
    endloop
  endfacet
  facet normal 0.559192 -0.829038 0
    outer loop
      vertex -1.23132 1.57602 1.42398
      vertex -1 1.73205 1.26795
      vertex -1.23132 1.57602 18.3224
    endloop
  endfacet
  facet normal 0.559192 -0.829038 -4.34982e-17
    outer loop
      vertex -1.23132 1.57602 18.3224
      vertex -1 1.73205 1.26795
      vertex -1.17714 1.61257 18.3874
    endloop
  endfacet
  facet normal 0.438371 -0.898794 0
    outer loop
      vertex -0.749213 1.85437 1.14563
      vertex -0.749213 1.85437 18.1456
      vertex -1 1.73205 18.2679
    endloop
  endfacet
  facet normal 0.438371 -0.898794 0
    outer loop
      vertex -1 1.73205 1.26795
      vertex -0.749213 1.85437 1.14563
      vertex -1 1.73205 18.2679
    endloop
  endfacet
  facet normal 0.309015 -0.951057 0
    outer loop
      vertex -0.483844 1.94059 1.05941
      vertex -0.483844 1.94059 18.0594
      vertex -0.749213 1.85437 18.1456
    endloop
  endfacet
  facet normal 0.309015 -0.951057 0
    outer loop
      vertex -0.749213 1.85437 1.14563
      vertex -0.483844 1.94059 1.05941
      vertex -0.749213 1.85437 18.1456
    endloop
  endfacet
  facet normal 0.17365 -0.984807 0
    outer loop
      vertex -0.209057 1.98904 1.01096
      vertex -0.209057 1.98904 18.011
      vertex -0.483844 1.94059 18.0594
    endloop
  endfacet
  facet normal 0.17365 -0.984807 0
    outer loop
      vertex -0.483844 1.94059 1.05941
      vertex -0.209057 1.98904 1.01096
      vertex -0.483844 1.94059 18.0594
    endloop
  endfacet
  facet normal 0.0349 -0.999391 0
    outer loop
      vertex 0.069799 1.99878 1.00122
      vertex 0.069799 1.99878 18.0012
      vertex -0.209057 1.98904 18.011
    endloop
  endfacet
  facet normal 0.0349 -0.999391 0
    outer loop
      vertex -0.209057 1.98904 1.01096
      vertex 0.069799 1.99878 1.00122
      vertex -0.209057 1.98904 18.011
    endloop
  endfacet
  facet normal -0.104528 -0.994522 -0
    outer loop
      vertex 0.347296 1.96962 1.03038
      vertex 0.347296 1.96962 18.0304
      vertex 0.069799 1.99878 18.0012
    endloop
  endfacet
  facet normal -0.104528 -0.994522 -0
    outer loop
      vertex 0.069799 1.99878 1.00122
      vertex 0.347296 1.96962 1.03038
      vertex 0.069799 1.99878 18.0012
    endloop
  endfacet
  facet normal -0.241923 -0.970295 -0
    outer loop
      vertex 0.618034 1.90211 1.09789
      vertex 0.618034 1.90211 18.0979
      vertex 0.347296 1.96962 18.0304
    endloop
  endfacet
  facet normal -0.241923 -0.970295 -0
    outer loop
      vertex 0.347296 1.96962 1.03038
      vertex 0.618034 1.90211 1.09789
      vertex 0.347296 1.96962 18.0304
    endloop
  endfacet
  facet normal -0.374607 -0.927184 -0
    outer loop
      vertex 0.876742 1.79759 1.20241
      vertex 0.876742 1.79759 18.2024
      vertex 0.618034 1.90211 18.0979
    endloop
  endfacet
  facet normal -0.374607 -0.927184 -0
    outer loop
      vertex 0.618034 1.90211 1.09789
      vertex 0.876742 1.79759 1.20241
      vertex 0.618034 1.90211 18.0979
    endloop
  endfacet
  facet normal -0.499999 -0.866026 -0
    outer loop
      vertex 1.11839 1.65807 1.34192
      vertex 1.11839 1.65807 18.3419
      vertex 0.876742 1.79759 18.2024
    endloop
  endfacet
  facet normal -0.499999 -0.866026 -0
    outer loop
      vertex 0.876742 1.79759 1.20241
      vertex 1.11839 1.65807 1.34192
      vertex 0.876742 1.79759 18.2024
    endloop
  endfacet
  facet normal -0.615661 -0.788011 -0
    outer loop
      vertex 1.33826 1.48629 1.51371
      vertex 1.33826 1.48629 18.1941
      vertex 1.17694 1.61233 18.3877
    endloop
  endfacet
  facet normal -0.615661 -0.788011 -0
    outer loop
      vertex 1.11839 1.65807 1.34192
      vertex 1.33826 1.48629 1.51371
      vertex 1.11839 1.65807 18.3419
    endloop
  endfacet
  facet normal -0.615661 -0.788011 -1.82295e-17
    outer loop
      vertex 1.11839 1.65807 18.3419
      vertex 1.33826 1.48629 1.51371
      vertex 1.17694 1.61233 18.3877
    endloop
  endfacet
  facet normal -0.71934 -0.694658 0
    outer loop
      vertex 1.53209 1.28557 17.9465
      vertex 1.5 1.3188 18
      vertex 1.53209 1.28557 1.71443
    endloop
  endfacet
  facet normal -0.71934 -0.694658 -1.43513e-17
    outer loop
      vertex 1.53209 1.28557 1.71443
      vertex 1.5 1.3188 18
      vertex 1.33826 1.48629 18.1941
    endloop
  endfacet
  facet normal -0.71934 -0.694658 0
    outer loop
      vertex 1.53209 1.28557 1.71443
      vertex 1.33826 1.48629 18.1941
      vertex 1.33826 1.48629 1.51371
    endloop
  endfacet
  facet normal -0.809017 -0.587786 0
    outer loop
      vertex 1.6961 1.05984 17.6732
      vertex 1.53209 1.28557 17.9465
      vertex 1.6961 1.05984 1.94016
    endloop
  endfacet
  facet normal -0.809017 -0.587786 0
    outer loop
      vertex 1.6961 1.05984 1.94016
      vertex 1.53209 1.28557 17.9465
      vertex 1.53209 1.28557 1.71443
    endloop
  endfacet
  facet normal -0.882948 -0.469471 0
    outer loop
      vertex 1.82709 0.813473 17.4548
      vertex 1.6961 1.05984 17.6732
      vertex 1.82709 0.813473 2.18653
    endloop
  endfacet
  facet normal -0.882948 -0.469471 0
    outer loop
      vertex 1.82709 0.813473 2.18653
      vertex 1.6961 1.05984 17.6732
      vertex 1.6961 1.05984 1.94016
    endloop
  endfacet
  facet normal 0.957826 7.97551e-16 -0.287348
    outer loop
      vertex 3.2 6 7.10543e-16
      vertex 3.32 7 0.4
      vertex 3.5 8 1
    endloop
  endfacet
  facet normal 0.957826 -1.87867e-16 -0.287348
    outer loop
      vertex 3.5 2 1
      vertex 3.2 6 7.10543e-16
      vertex 3.5 8 1
    endloop
  endfacet
  facet normal 0.957826 -3.39901e-16 -0.287348
    outer loop
      vertex 3.44 2.2 0.8
      vertex 3.2 6 7.10543e-16
      vertex 3.5 2 1
    endloop
  endfacet
  facet normal 0.957826 -3.272e-16 -0.287348
    outer loop
      vertex 3.32 2.8 0.4
      vertex 3.2 6 7.10543e-16
      vertex 3.44 2.2 0.8
    endloop
  endfacet
  facet normal 0.957826 -1.77233e-16 -0.287348
    outer loop
      vertex 3.2 3.6 7.10543e-16
      vertex 3.2 6 7.10543e-16
      vertex 3.32 2.8 0.4
    endloop
  endfacet
  facet normal 1.74548e-16 -0.5547 -0.83205
    outer loop
      vertex -3.44 2.2 0.8
      vertex -3.32 2.8 0.4
      vertex 3.44 2.2 0.8
    endloop
  endfacet
  facet normal 1.90393e-16 -0.5547 -0.83205
    outer loop
      vertex 3.44 2.2 0.8
      vertex -3.32 2.8 0.4
      vertex 3.32 2.8 0.4
    endloop
  endfacet
  facet normal -0.957826 -2.6585e-16 -0.287348
    outer loop
      vertex -3.5 8 1
      vertex -3.32 7 0.4
      vertex -3.2 6 -7.10543e-16
    endloop
  endfacet
  facet normal -0.957826 1.74243e-16 -0.287348
    outer loop
      vertex -3.5 8 1
      vertex -3.2 6 -7.10543e-16
      vertex -3.2 3.6 -7.10543e-16
    endloop
  endfacet
  facet normal -0.957826 2.45704e-16 -0.287348
    outer loop
      vertex -3.5 8 1
      vertex -3.2 3.6 -7.10543e-16
      vertex -3.32 2.8 0.4
    endloop
  endfacet
  facet normal -0.957826 3.72252e-16 -0.287348
    outer loop
      vertex -3.5 8 1
      vertex -3.32 2.8 0.4
      vertex -3.44 2.2 0.8
    endloop
  endfacet
  facet normal -0.957826 3.58012e-16 -0.287348
    outer loop
      vertex -3.5 8 1
      vertex -3.44 2.2 0.8
      vertex -3.5 2 1
    endloop
  endfacet
  facet normal 0.911922 -4.33595e-16 0.410365
    outer loop
      vertex 3.24 -4.7 14.8
      vertex 3.6 -5.3 14
      vertex 3.6 5.4 14
    endloop
  endfacet
  facet normal 0.911922 -4.22889e-16 0.410365
    outer loop
      vertex 2.7 3.81818 16
      vertex 3.24 -4.7 14.8
      vertex 3.24 4.8 14.8
    endloop
  endfacet
  facet normal 0.911922 -4.26289e-16 0.410365
    outer loop
      vertex 3.24 4.8 14.8
      vertex 3.24 -4.7 14.8
      vertex 3.6 5.4 14
    endloop
  endfacet
  facet normal 0.911922 -4.19141e-16 0.410365
    outer loop
      vertex 2.7 -3.71818 16
      vertex 3.24 -4.7 14.8
      vertex 2.7 3.81818 16
    endloop
  endfacet
  facet normal -1.73589e-16 0.773957 0.633238
    outer loop
      vertex -3.24 4.8 14.8
      vertex -2.7 3.81818 16
      vertex 3.24 4.8 14.8
    endloop
  endfacet
  facet normal 0 0.773957 0.633238
    outer loop
      vertex 3.24 4.8 14.8
      vertex -2.7 3.81818 16
      vertex -2.1 3 17
    endloop
  endfacet
  facet normal -5.30356e-16 0.773957 0.633238
    outer loop
      vertex 3.24 4.8 14.8
      vertex -2.1 3 17
      vertex 2.1 3 17
    endloop
  endfacet
  facet normal 8.08664e-15 0.773957 0.633238
    outer loop
      vertex 3.24 4.8 14.8
      vertex 2.1 3 17
      vertex 2.7 3.81818 16
    endloop
  endfacet
  facet normal -2.6805e-16 -0.773957 0.633238
    outer loop
      vertex -2.7 -3.71818 16
      vertex -3.24 -4.7 14.8
      vertex 3.24 -4.7 14.8
    endloop
  endfacet
  facet normal -3.20792e-16 -0.773957 0.633238
    outer loop
      vertex 2.1 -2.9 17
      vertex -2.7 -3.71818 16
      vertex 2.7 -3.71818 16
    endloop
  endfacet
  facet normal -3.00887e-16 -0.773957 0.633238
    outer loop
      vertex 2.7 -3.71818 16
      vertex -2.7 -3.71818 16
      vertex 3.24 -4.7 14.8
    endloop
  endfacet
  facet normal -6.17481e-16 -0.773957 0.633238
    outer loop
      vertex -2.1 -2.9 17
      vertex -2.7 -3.71818 16
      vertex 2.1 -2.9 17
    endloop
  endfacet
  facet normal 1.76802e-16 0.514496 -0.857493
    outer loop
      vertex -3.5 8 1
      vertex 3.5 8 1
      vertex -3.32 7 0.4
    endloop
  endfacet
  facet normal 1.93556e-16 0.514496 -0.857493
    outer loop
      vertex -3.32 7 0.4
      vertex 3.5 8 1
      vertex 3.32 7 0.4
    endloop
  endfacet
  facet normal 0.857493 -4.27606e-16 0.514496
    outer loop
      vertex 2.1 -2.9 17
      vertex 2.7 -3.71818 16
      vertex 2.7 3.81818 16
    endloop
  endfacet
  facet normal 0.857493 -4.49279e-16 0.514496
    outer loop
      vertex 2 0 17.1667
      vertex 2.1 -2.9 17
      vertex 2.1 3 17
    endloop
  endfacet
  facet normal 0.857493 -4.51801e-16 0.514496
    outer loop
      vertex 2.1 3 17
      vertex 2.1 -2.9 17
      vertex 2.7 3.81818 16
    endloop
  endfacet
  facet normal 0.857493 4.8983e-16 0.514496
    outer loop
      vertex 2 0 17.1667
      vertex 1.98054 -0.278346 17.1991
      vertex 2.1 -2.9 17
    endloop
  endfacet
  facet normal 0.857493 -2.79511e-16 0.514496
    outer loop
      vertex 1.5 1.3188 18
      vertex 1.53209 1.28557 17.9465
      vertex 1.5 2 18
    endloop
  endfacet
  facet normal 0.857493 0 0.514496
    outer loop
      vertex 1.5 2 18
      vertex 1.6961 1.05984 17.6732
      vertex 2.1 3 17
    endloop
  endfacet
  facet normal 0.857493 -1.70992e-16 0.514496
    outer loop
      vertex 1.6961 1.05984 17.6732
      vertex 1.82709 0.813473 17.4548
      vertex 2.1 3 17
    endloop
  endfacet
  facet normal 0.857493 -1.65977e-15 0.514496
    outer loop
      vertex 1.82709 0.813473 17.4548
      vertex 1.92252 0.551275 17.2958
      vertex 2.1 3 17
    endloop
  endfacet
  facet normal 0.857493 -4.27456e-16 0.514496
    outer loop
      vertex 1.92252 -0.551275 17.2958
      vertex 1.82709 -0.813473 17.4548
      vertex 2.1 -2.9 17
    endloop
  endfacet
  facet normal 0.857493 -5.05682e-16 0.514496
    outer loop
      vertex 1.92252 0.551275 17.2958
      vertex 1.98054 0.278346 17.1991
      vertex 2.1 3 17
    endloop
  endfacet
  facet normal 0.857493 -1.08299e-15 0.514496
    outer loop
      vertex 1.98054 0.278346 17.1991
      vertex 2 0 17.1667
      vertex 2.1 3 17
    endloop
  endfacet
  facet normal 0.857493 -1.59733e-16 0.514496
    outer loop
      vertex 1.82709 -0.813473 17.4548
      vertex 1.6961 -1.05984 17.6732
      vertex 2.1 -2.9 17
    endloop
  endfacet
  facet normal 0.857493 -3.11371e-16 0.514496
    outer loop
      vertex 1.98054 -0.278346 17.1991
      vertex 1.92252 -0.551275 17.2958
      vertex 2.1 -2.9 17
    endloop
  endfacet
  facet normal 0.857493 -3.55168e-16 0.514496
    outer loop
      vertex 1.53209 -1.28557 17.9465
      vertex 2.1 -2.9 17
      vertex 1.6961 -1.05984 17.6732
    endloop
  endfacet
  facet normal 0.857493 6.50393e-15 0.514496
    outer loop
      vertex 1.5 -1.3188 18
      vertex 2.1 -2.9 17
      vertex 1.53209 -1.28557 17.9465
    endloop
  endfacet
  facet normal 0.857493 -3.27603e-16 0.514496
    outer loop
      vertex 1.5 -1.9 18
      vertex 2.1 -2.9 17
      vertex 1.5 -1.3188 18
    endloop
  endfacet
  facet normal 0.857493 2.48641e-17 0.514496
    outer loop
      vertex 1.53209 1.28557 17.9465
      vertex 1.6961 1.05984 17.6732
      vertex 1.5 2 18
    endloop
  endfacet
  facet normal 1.59901e-16 -0.371391 -0.928477
    outer loop
      vertex -3.32 -6.9 0.4
      vertex -3.2 -5.9 -7.10543e-16
      vertex 3.32 -6.9 0.4
    endloop
  endfacet
  facet normal 1.60475e-16 -0.371391 -0.928477
    outer loop
      vertex 3.32 -6.9 0.4
      vertex -3.2 -5.9 -7.10543e-16
      vertex 3.2 -5.9 7.10543e-16
    endloop
  endfacet
  facet normal 2.22045e-16 0 -1
    outer loop
      vertex -3.2 -5.9 -7.10543e-16
      vertex -3.2 -3.5 -7.10543e-16
      vertex 3.2 -5.9 7.10543e-16
    endloop
  endfacet
  facet normal 2.22045e-16 0 -1
    outer loop
      vertex 3.2 -5.9 7.10543e-16
      vertex -3.2 -3.5 -7.10543e-16
      vertex 3.2 -3.5 7.10543e-16
    endloop
  endfacet
  facet normal 2.61713e-16 0.447214 -0.894427
    outer loop
      vertex -3.32 -2.7 0.4
      vertex 3.32 -2.7 0.4
      vertex -3.2 -3.5 -7.10543e-16
    endloop
  endfacet
  facet normal 2.60666e-16 0.447214 -0.894427
    outer loop
      vertex -3.2 -3.5 -7.10543e-16
      vertex 3.32 -2.7 0.4
      vertex 3.2 -3.5 7.10543e-16
    endloop
  endfacet
  facet normal 0.768221 -2.93497e-16 0.640184
    outer loop
      vertex 1.5 -1.9 18
      vertex 1.5 -1.3188 18
      vertex 1.33826 -1.48629 18.1941
    endloop
  endfacet
  facet normal 0.768221 1.20678e-15 0.640184
    outer loop
      vertex 1.22741 -1.57289 18.3271
      vertex 1.5 -1.9 18
      vertex 1.33826 -1.48629 18.1941
    endloop
  endfacet
  facet normal -6.96448e-16 -0.707107 0.707107
    outer loop
      vertex -1.5 -1.9 18
      vertex -2.1 -2.9 17
      vertex 2.1 -2.9 17
    endloop
  endfacet
  facet normal 2.68399e-17 -0.707107 0.707107
    outer loop
      vertex -0.209057 -1.98904 17.911
      vertex -0.483844 -1.94059 17.9594
      vertex -1.5 -1.9 18
    endloop
  endfacet
  facet normal -1.54339e-15 -0.707107 0.707107
    outer loop
      vertex -0.209057 -1.98904 17.911
      vertex -1.5 -1.9 18
      vertex 2.1 -2.9 17
    endloop
  endfacet
  facet normal -3.6377e-15 -0.707107 0.707107
    outer loop
      vertex 1.22741 -1.57289 18.3271
      vertex 1.11839 -1.65807 18.2419
      vertex 1.5 -1.9 18
    endloop
  endfacet
  facet normal -2.32848e-15 -0.707107 0.707107
    outer loop
      vertex 1.11839 -1.65807 18.2419
      vertex 0.876742 -1.79759 18.1024
      vertex 1.5 -1.9 18
    endloop
  endfacet
  facet normal -7.1176e-16 -0.707107 0.707107
    outer loop
      vertex 1.5 -1.9 18
      vertex 0.618034 -1.90211 17.9979
      vertex 2.1 -2.9 17
    endloop
  endfacet
  facet normal 2.35774e-15 -0.707107 0.707107
    outer loop
      vertex 0.618034 -1.90211 17.9979
      vertex 0.347296 -1.96962 17.9304
      vertex 2.1 -2.9 17
    endloop
  endfacet
  facet normal -1.64693e-15 -0.707107 0.707107
    outer loop
      vertex -0.749213 -1.85437 18.0456
      vertex -1 -1.73205 18.1679
      vertex -1.5 -1.9 18
    endloop
  endfacet
  facet normal 0 -0.707107 0.707107
    outer loop
      vertex 0.347296 -1.96962 17.9304
      vertex 0.069799 -1.99878 17.9012
      vertex 2.1 -2.9 17
    endloop
  endfacet
  facet normal -3.6684e-15 -0.707107 0.707107
    outer loop
      vertex 0.069799 -1.99878 17.9012
      vertex -0.209057 -1.98904 17.911
      vertex 2.1 -2.9 17
    endloop
  endfacet
  facet normal -2.11555e-16 -0.707107 0.707107
    outer loop
      vertex -1.23049 -1.57659 18.3234
      vertex -1.5 -1.9 18
      vertex -1 -1.73205 18.1679
    endloop
  endfacet
  facet normal -7.48729e-16 -0.707107 0.707107
    outer loop
      vertex 0.876742 -1.79759 18.1024
      vertex 0.618034 -1.90211 17.9979
      vertex 1.5 -1.9 18
    endloop
  endfacet
  facet normal -1.05076e-15 -0.707107 0.707107
    outer loop
      vertex -0.483844 -1.94059 17.9594
      vertex -0.749213 -1.85437 18.0456
      vertex -1.5 -1.9 18
    endloop
  endfacet
  facet normal -0.768221 0 0.640184
    outer loop
      vertex -1.5 -1.9 18
      vertex -1.43868 -1.38932 18.0736
      vertex -1.5 -1.31624 18
    endloop
  endfacet
  facet normal -0.768221 1.90727e-16 0.640184
    outer loop
      vertex -1.23132 -1.57602 18.3224
      vertex -1.43868 -1.38932 18.0736
      vertex -1.5 -1.9 18
    endloop
  endfacet
  facet normal -0.768221 -1.45793e-13 0.640184
    outer loop
      vertex -1.23132 -1.57602 18.3224
      vertex -1.5 -1.9 18
      vertex -1.23049 -1.57659 18.3234
    endloop
  endfacet
  facet normal -5.9813e-16 0.707107 0.707107
    outer loop
      vertex -2.1 3 17
      vertex -1.5 2 18
      vertex 2.1 3 17
    endloop
  endfacet
  facet normal 2.42568e-15 0.707107 0.707107
    outer loop
      vertex -1 1.73205 18.2679
      vertex -1.5 2 18
      vertex -1.17714 1.61257 18.3874
    endloop
  endfacet
  facet normal -8.83434e-16 0.707107 0.707107
    outer loop
      vertex -0.749213 1.85437 18.1456
      vertex -1.5 2 18
      vertex -1 1.73205 18.2679
    endloop
  endfacet
  facet normal 0 0.707107 0.707107
    outer loop
      vertex 2.1 3 17
      vertex -1.5 2 18
      vertex -0.749213 1.85437 18.1456
    endloop
  endfacet
  facet normal 1.03275e-14 0.707107 0.707107
    outer loop
      vertex -0.209057 1.98904 18.011
      vertex 2.1 3 17
      vertex -0.483844 1.94059 18.0594
    endloop
  endfacet
  facet normal -4.03359e-15 0.707107 0.707107
    outer loop
      vertex 2.1 3 17
      vertex -0.209057 1.98904 18.011
      vertex 0.069799 1.99878 18.0012
    endloop
  endfacet
  facet normal -1.42503e-16 0.707107 0.707107
    outer loop
      vertex 0.069799 1.99878 18.0012
      vertex 0.347296 1.96962 18.0304
      vertex 2.1 3 17
    endloop
  endfacet
  facet normal -4.34415e-15 0.707107 0.707107
    outer loop
      vertex 0.347296 1.96962 18.0304
      vertex 0.618034 1.90211 18.0979
      vertex 2.1 3 17
    endloop
  endfacet
  facet normal 1.964e-15 0.707107 0.707107
    outer loop
      vertex 0.618034 1.90211 18.0979
      vertex 0.876742 1.79759 18.2024
      vertex 2.1 3 17
    endloop
  endfacet
  facet normal -1.8784e-15 0.707107 0.707107
    outer loop
      vertex 0.876742 1.79759 18.2024
      vertex 1.11839 1.65807 18.3419
      vertex 2.1 3 17
    endloop
  endfacet
  facet normal 2.03928e-14 0.707107 0.707107
    outer loop
      vertex 1.11839 1.65807 18.3419
      vertex 1.17694 1.61233 18.3877
      vertex 2.1 3 17
    endloop
  endfacet
  facet normal 1.6712e-15 0.707107 0.707107
    outer loop
      vertex 2.1 3 17
      vertex 1.17694 1.61233 18.3877
      vertex 1.5 2 18
    endloop
  endfacet
  facet normal 7.15806e-15 0.707107 0.707107
    outer loop
      vertex -0.483844 1.94059 18.0594
      vertex 2.1 3 17
      vertex -0.749213 1.85437 18.1456
    endloop
  endfacet
  facet normal -0.768221 -1.15912e-14 0.640184
    outer loop
      vertex -1.23132 1.57602 18.3224
      vertex -1.17714 1.61257 18.3874
      vertex -1.5 2 18
    endloop
  endfacet
  facet normal -0.768221 -2.59081e-15 0.640184
    outer loop
      vertex -1.23132 1.57602 18.3224
      vertex -1.5 2 18
      vertex -1.43868 1.38932 18.0736
    endloop
  endfacet
  facet normal -0.768221 2.49472e-16 0.640184
    outer loop
      vertex -1.5 2 18
      vertex -1.5 1.31624 18
      vertex -1.43868 1.38932 18.0736
    endloop
  endfacet
  facet normal 0.768221 -2.55362e-16 0.640184
    outer loop
      vertex 1.33826 1.48629 18.1941
      vertex 1.5 1.3188 18
      vertex 1.5 2 18
    endloop
  endfacet
  facet normal 0.768221 4.44827e-15 0.640184
    outer loop
      vertex 1.17694 1.61233 18.3877
      vertex 1.33826 1.48629 18.1941
      vertex 1.5 2 18
    endloop
  endfacet
  facet normal 2.09579e-16 0.371391 -0.928477
    outer loop
      vertex -3.32 7 0.4
      vertex 3.32 7 0.4
      vertex -3.2 6 -7.10543e-16
    endloop
  endfacet
  facet normal 2.06163e-16 0.371391 -0.928477
    outer loop
      vertex -3.2 6 -7.10543e-16
      vertex 3.32 7 0.4
      vertex 3.2 6 7.10543e-16
    endloop
  endfacet
  facet normal 2.22045e-16 0 -1
    outer loop
      vertex -3.2 3.6 -7.10543e-16
      vertex -3.2 6 -7.10543e-16
      vertex 3.2 3.6 7.10543e-16
    endloop
  endfacet
  facet normal 2.22045e-16 0 -1
    outer loop
      vertex 3.2 3.6 7.10543e-16
      vertex -3.2 6 -7.10543e-16
      vertex 3.2 6 7.10543e-16
    endloop
  endfacet
  facet normal 2.01893e-16 -0.447214 -0.894427
    outer loop
      vertex -3.32 2.8 0.4
      vertex -3.2 3.6 -7.10543e-16
      vertex 3.32 2.8 0.4
    endloop
  endfacet
  facet normal 2.0612e-16 -0.447214 -0.894427
    outer loop
      vertex 3.32 2.8 0.4
      vertex -3.2 3.6 -7.10543e-16
      vertex 3.2 3.6 7.10543e-16
    endloop
  endfacet
endsolid OpenSCAD_Model
